<?xml version="1.0" encoding="utf-8"?>
<!-- Generator: Adobe Illustrator 16.0.0, SVG Export Plug-In . SVG Version: 6.00 Build 0)  -->
<!DOCTYPE svg PUBLIC "-//W3C//DTD SVG 1.1//EN" "http://www.w3.org/Graphics/SVG/1.1/DTD/svg11.dtd">
<svg version="1.1" id="Layer_1" xmlns="http://www.w3.org/2000/svg" xmlns:xlink="http://www.w3.org/1999/xlink" x="0px" y="0px"
	 width="128px" height="128px" viewBox="0 0 128 128" enable-background="new 0 0 128 128" xml:space="preserve">
<rect y="-0.339" fill="#C03A2B" stroke="#C03A2B" stroke-miterlimit="10" width="128" height="128.339"/>
<g>
	<path fill="#FFFFFF" d="M94.542,2.333c2.393,0,4.786,0,7.179,0c0.236,0.217,0.455,0.456,0.71,0.646
		c1.271,0.946,2.821,1.666,3.77,2.864c1.502,1.898,2.605,4.117,2.209,6.721c-0.15,0.99-0.443,1.966-0.518,2.959
		c-0.334,4.46-0.571,8.927-0.92,13.386c-0.414,5.287-0.94,10.565-1.354,15.852c-0.42,5.348-0.773,10.701-1.137,16.053
		c-0.473,6.96-0.989,13.918-1.37,20.884c-0.329,6.015-0.253,12.062-0.801,18.053c-0.562,6.146-3.364,11.392-8.057,15.455
		c-6.265,5.426-13.777,7.112-21.896,7.858c-0.756,0.069-1.485-0.565-2.227-0.338c-2.272,0-4.547,0-6.82,0
		c-0.688-0.248-1.361-0.143-2.064-0.203c-8.612-0.746-16.628-2.309-24.281-6.194c-2.549-1.294-4.119-3.283-4.226-6.318
		c-0.117-3.335-0.415-6.663-0.633-9.995c-0.629-9.578-1.035-19.178-1.94-28.73c-1.259-13.287-2.869-26.54-4.396-39.8
		c-0.212-1.843-0.81-3.642-1.229-5.461c0-0.957,0-1.915,0-2.872c0.306-0.493,0.684-0.954,0.905-1.482
		c1.354-3.24,3.775-4.948,7.271-5.079c1.671-0.062,3.348-0.05,5.021,0.004c3.213,0.104,5.461,1.493,6.262,4.582
		c1.305,5.042,2.271,10.174,3.29,15.286c0.821,4.121,1.508,8.269,2.237,12.311c6.076-1.445,11.997-3.41,17.388,1.983
		c1.885-2.096,4.319-3.419,7.378-3.246c2.815,0.159,5.631,0.305,8.508,0.46c0.691-4.926,1.414-9.989,2.11-15.055
		c1.021-7.425,2.036-14.851,3.026-22.281c0.408-3.062,1.726-5.53,4.433-7.143C93.074,3.075,93.816,2.719,94.542,2.333z
		 M65.746,85.948c-1.321,0.538-2.379,1.259-3.497,1.367c-2.66,0.257-5.38,0.526-8.016,0.238c-3.931-0.43-7.16-2.946-7.188-8.306
		c-0.042-8.014,0.021-16.028,0.03-24.042c0-0.591-0.02-1.191-0.119-1.771c-0.617-3.625-1.237-7.25-1.899-10.866
		C44,36.795,43.04,31,41.788,25.269c-0.938-4.296-2.525-5.132-6.9-5.381c-5.427-0.309-7.329,4.179-6.882,7.834
		c0.518,4.248,0.986,8.501,1.506,12.749c0.606,4.955,1.231,9.908,1.873,14.858c0.672,5.186,1.466,10.358,2.036,15.556
		c0.5,4.559,0.73,9.146,1.143,13.715c0.676,7.475,1.434,14.941,2.095,22.417c0.332,3.752,1.891,5.838,5.497,7.033
		c5.987,1.984,12.094,3.376,18.386,4.005c7.465,0.745,14.874,0.784,22.103-1.521c7.26-2.315,12.593-6.687,15.258-14.115
		c1.45-4.042,1.062-7.511-1.666-10.798c-4.957-5.975-9.865-11.989-14.811-17.974c-2.471-2.989-4.911-6.009-7.498-8.896
		c-1.195-1.333-2.732-2.389-4.708-2.155c-4.715,0.559-7.787,5.127-6.383,9.634c2.013,6.462,6.011,11.736,10.395,16.735
		c2.148,2.449,2.211,2.392,5.146,1.292c0.499-0.188,1-0.382,1.516-0.511c2.81-0.705,5.607,0.245,6.774,2.437
		c-5.366-1.017-9.42,1.18-12.711,5.029c-3.708,4.335-1.558,9.103-0.693,13.828c-4.521-2.896-5.11-10.545-1.387-17.062
		C69.841,91.312,67.783,88.616,65.746,85.948z M98.361,87.944c0.267-0.215,0.533-0.431,0.8-0.646
		c0.036-0.211,0.099-0.422,0.106-0.634c0.246-7.036,0.401-14.077,0.762-21.107c0.225-4.399,0.747-8.783,1.156-13.172
		c0.43-4.625,0.882-9.248,1.325-13.872c0.438-4.564,0.919-9.125,1.3-13.694c0.342-4.097,0.711-8.2,0.809-12.306
		c0.077-3.217-2.175-6.134-4.455-6.314c-5.206-0.41-7.538,0.979-8.147,5.208c-0.738,5.123-1.229,10.282-1.859,15.421
		c-0.645,5.254-1.334,10.502-1.992,15.755c-0.539,4.309-1.326,8.607-1.526,12.932c-0.265,5.73-0.093,11.482-0.03,17.223
		c0.008,0.689,0.337,1.517,0.793,2.038c3.384,3.869,6.853,7.665,10.25,11.521C98.027,86.725,98.131,87.39,98.361,87.944z
		 M57.761,50.724c-5.206,0-7.444,2.259-7.445,7.518c0,6.274,0.014,12.548-0.006,18.821c-0.008,2.688,0.808,5.118,3.231,6.331
		c2.697,1.35,5.671,1.16,8.492,0.045c1.048-0.414,1.046-1.118,0.49-2.141c-0.989-1.818-1.902-3.711-2.559-5.67
		c-2.079-6.204-0.353-11.768,4.836-14.045c0.316-0.139,0.638-0.56,0.714-0.903C66.743,55.149,63.281,50.724,57.761,50.724z
		 M68.639,59.943c3.471-0.802,5.914,0.628,8.019,2.842c0.86,0.904,1.631,1.896,2.414,2.872c1.094,1.361,2.16,2.745,3.573,4.545
		c0.067-1.148,0.128-1.712,0.13-2.276c0.007-3.163,0.093-6.329-0.022-9.489c-0.264-7.243-3.746-8.197-9.096-7.319
		c-2.976,0.488-4.742,2.199-4.993,4.576C68.527,56.981,68.639,58.295,68.639,59.943z"/>
	<path fill-rule="evenodd" clip-rule="evenodd" fill="none" d="M94.542,2.333c-0.726,0.386-1.468,0.742-2.173,1.162
		c-2.707,1.612-4.024,4.081-4.433,7.143c-0.99,7.43-2.006,14.855-3.026,22.281c-0.696,5.066-1.419,10.129-2.11,15.055
		c-2.877-0.155-5.692-0.301-8.508-0.46c-3.059-0.173-5.493,1.15-7.378,3.246c-5.392-5.394-11.312-3.428-17.388-1.983
		c-0.729-4.042-1.416-8.189-2.237-12.311c-1.019-5.112-1.984-10.245-3.29-15.286c-0.8-3.089-3.049-4.478-6.262-4.582
		c-1.672-0.054-3.349-0.066-5.021-0.004c-3.496,0.13-5.917,1.838-7.271,5.079c-0.221,0.528-0.599,0.989-0.905,1.482"/>
	<path fill-rule="evenodd" clip-rule="evenodd" fill="none" d="M70.131,122.728c0.741-0.228,1.471,0.407,2.227,0.338
		c8.118-0.746,15.631-2.433,21.896-7.858c4.692-4.063,7.494-9.309,8.057-15.455c0.548-5.991,0.472-12.038,0.801-18.053
		c0.381-6.966,0.897-13.924,1.37-20.884c0.363-5.352,0.717-10.705,1.137-16.053c0.414-5.287,0.94-10.565,1.354-15.852
		c0.349-4.459,0.586-8.926,0.92-13.386c0.074-0.994,0.367-1.969,0.518-2.959c0.396-2.604-0.707-4.823-2.209-6.721
		c-0.948-1.198-2.498-1.918-3.77-2.864c-0.255-0.19-0.474-0.429-0.71-0.646"/>
	<path fill-rule="evenodd" clip-rule="evenodd" fill="none" d="M24.542,26.025c0.419,1.819,1.017,3.618,1.229,5.461
		c1.527,13.26,3.137,26.513,4.396,39.8c0.906,9.553,1.312,19.152,1.94,28.73c0.218,3.332,0.516,6.66,0.633,9.995
		c0.107,3.035,1.676,5.024,4.226,6.318c7.653,3.886,15.669,5.448,24.281,6.194c0.703,0.061,1.376-0.045,2.064,0.203"/>
	<path fill-rule="evenodd" clip-rule="evenodd" fill="none" d="M65.746,85.948c2.037,2.668,4.095,5.363,6.132,8.032
		c-3.724,6.517-3.134,14.165,1.387,17.062c-0.864-4.726-3.015-9.493,0.693-13.828c3.291-3.85,7.345-6.046,12.711-5.029
		c-1.167-2.191-3.965-3.142-6.774-2.437c-0.516,0.129-1.017,0.323-1.516,0.511c-2.936,1.1-2.998,1.157-5.146-1.292
		c-4.384-4.999-8.382-10.273-10.395-16.735c-1.403-4.507,1.668-9.075,6.383-9.634c1.976-0.234,3.513,0.822,4.708,2.155
		c2.587,2.887,5.027,5.906,7.498,8.896c4.945,5.984,9.854,11.999,14.811,17.974c2.728,3.287,3.116,6.756,1.666,10.798
		c-2.665,7.429-7.998,11.8-15.258,14.115c-7.229,2.305-14.638,2.266-22.103,1.521c-6.292-0.629-12.399-2.021-18.386-4.005
		c-3.606-1.195-5.166-3.281-5.497-7.033c-0.662-7.476-1.419-14.942-2.095-22.417c-0.413-4.569-0.643-9.156-1.143-13.715
		c-0.57-5.197-1.364-10.37-2.036-15.556c-0.642-4.95-1.267-9.903-1.873-14.858c-0.52-4.247-0.988-8.501-1.506-12.749
		c-0.446-3.655,1.455-8.144,6.882-7.834c4.375,0.249,5.962,1.084,6.9,5.381C43.04,31,44,36.795,45.058,42.568
		c0.663,3.617,1.282,7.241,1.899,10.866c0.099,0.581,0.119,1.181,0.119,1.771c-0.009,8.014-0.072,16.029-0.03,24.042
		c0.028,5.359,3.256,7.876,7.188,8.306c2.636,0.288,5.356,0.019,8.016-0.238C63.367,87.207,64.425,86.486,65.746,85.948z"/>
	<path fill-rule="evenodd" clip-rule="evenodd" fill="none" d="M98.361,87.944c-0.23-0.555-0.334-1.22-0.71-1.646
		c-3.397-3.856-6.866-7.652-10.25-11.521c-0.456-0.521-0.785-1.349-0.793-2.038c-0.062-5.741-0.234-11.493,0.03-17.223
		c0.2-4.325,0.987-8.624,1.526-12.932c0.658-5.252,1.348-10.5,1.992-15.755c0.63-5.14,1.121-10.298,1.859-15.421
		c0.609-4.229,2.941-5.618,8.147-5.208c2.28,0.18,4.532,3.097,4.455,6.314c-0.098,4.106-0.467,8.209-0.809,12.306
		c-0.381,4.569-0.862,9.13-1.3,13.694c-0.443,4.624-0.896,9.247-1.325,13.872c-0.409,4.389-0.932,8.773-1.156,13.172
		c-0.36,7.03-0.516,14.071-0.762,21.107c-0.008,0.212-0.07,0.423-0.106,0.634C98.895,87.514,98.628,87.729,98.361,87.944z"/>
	<path fill-rule="evenodd" clip-rule="evenodd" fill="none" d="M57.761,50.724c5.52,0,8.982,4.426,7.754,9.956
		c-0.076,0.343-0.398,0.764-0.714,0.903c-5.189,2.278-6.916,7.841-4.836,14.045c0.656,1.959,1.569,3.852,2.559,5.67
		c0.556,1.022,0.559,1.727-0.49,2.141c-2.821,1.115-5.795,1.305-8.492-0.045c-2.424-1.213-3.24-3.644-3.231-6.331
		c0.02-6.273,0.006-12.547,0.006-18.821C50.317,52.983,52.555,50.724,57.761,50.724z"/>
	<path fill-rule="evenodd" clip-rule="evenodd" fill="none" d="M68.639,59.943c0-1.648-0.111-2.962,0.024-4.25
		c0.251-2.377,2.018-4.088,4.993-4.576c5.35-0.877,8.832,0.076,9.096,7.319c0.115,3.16,0.029,6.326,0.022,9.489
		c-0.002,0.564-0.062,1.128-0.13,2.276c-1.413-1.8-2.479-3.184-3.573-4.545c-0.783-0.976-1.554-1.967-2.414-2.872
		C74.553,60.571,72.109,59.142,68.639,59.943z"/>
</g>
</svg>
